Coordinates
version=1
nRows=5
nColumns=40
inDegrees=yes

Units are S.I. units (second, meters, Newtons, ...)
Angles are in degrees.

endheader
time	pelvis_tilt	pelvis_list	pelvis_rotation	pelvis_tx	pelvis_ty	pelvis_tz	hip_flexion_r	hip_adduction_r	hip_rotation_r	knee_angle_r	knee_angle_r_beta	ankle_angle_r	subtalar_angle_r	mtp_angle_r	hip_flexion_l	hip_adduction_l	hip_rotation_l	knee_angle_l	knee_angle_l_beta	ankle_angle_l	subtalar_angle_l	mtp_angle_l	lumbar_extension	lumbar_bending	lumbar_rotation	arm_flex_r	arm_add_r	arm_rot_r	elbow_flex_r	pro_sup_r	wrist_flex_r	wrist_dev_r	arm_flex_l	arm_add_l	arm_rot_l	elbow_flex_l	pro_sup_l	wrist_flex_l	wrist_dev_l
     29.61500000	     -7.17245347	     -7.69643049	      2.79628879	      1.00513129	      0.91552107	      0.45695138	      1.18434193	      7.25450049	    -18.26110967	      6.94695493	      6.94695493	     15.31162358	      8.22100246	     -4.59391487	     36.02539397	    -11.03326908	     -3.54794049	     20.96427167	     20.96427167	      5.83285202	    -10.45887702	     13.06645260	    -10.99949784	      7.76113545	      3.34271755	     42.08283050	    -14.31861676	      3.88055616	     80.78992344	     44.47966943	      0.00000000	      0.00000000	    -14.25410291	     -7.01037815	      1.83184339	     30.41032699	     45.59750222	      0.00000000	      0.00000000
     29.62721429	     -7.16873967	     -7.71327499	      2.62715541	      1.00694792	      0.91418336	      0.45539875	      0.80733962	      7.12704312	    -17.64635845	      7.56162366	      7.56162366	     16.44811047	      7.57370363	     -2.96929085	     35.29673359	    -10.94422810	     -3.78094481	     20.74547793	     20.74547793	      3.27150346	    -11.85250696	      9.17935199	    -10.83661674	      7.62076745	      3.72739365	     40.80926667	    -15.13049749	      4.54644231	     84.70714508	     44.37560346	      0.00000000	      0.00000000	    -14.48311790	     -7.10633440	      2.12578900	     30.43903907	     45.55951612	      0.00000000	      0.00000000
     29.63942857	     -7.11219498	     -7.62671486	      2.46118015	      1.00883323	      0.91304506	      0.45374658	      0.40861220	      6.84978446	    -17.21532067	      8.23487402	      8.23487402	     17.35550124	      7.19796322	     -2.16362975	     34.71592031	    -10.84703455	     -4.09107940	     21.07072445	     21.07072445	      1.65311754	    -12.83959858	      6.84809408	    -10.62406513	      7.35061748	      3.67172757	     39.97824224	    -14.92071212	      4.42619001	     86.28898119	     44.38713010	      0.00000000	      0.00000000	    -14.64962184	     -7.23419783	      2.56344487	     29.84278093	     45.50729498	      0.00000000	      0.00000000
     29.65164286	     -7.09541199	     -7.47213371	      2.35719673	      1.01052030	      0.91204990	      0.45191054	      0.16218453	      6.46717212	    -16.82718571	      9.05035952	      9.05035952	     17.92827887	      6.58836190	     -2.06103265	     34.39015559	    -10.67520758	     -4.26491455	     21.83135512	     21.83135512	      1.09348871	    -13.54673630	      6.40325654	    -10.37605656	      7.02192029	      3.27986673	     39.21865190	    -14.58664799	      4.73283318	     87.42154636	     44.35665869	      0.00000000	      0.00000000	    -14.89693565	     -7.29475534	      2.62801774	     29.60678007	     45.49891703	      0.00000000	      0.00000000
     29.66385714	     -6.88610838	     -7.28289172	      2.31272629	      1.01240156	      0.91167610	      0.44986051	     -0.47494716	      6.08237026	    -16.59441262	      9.51592324	      9.51592324	     18.27607571	      6.33961311	     -2.11856792	     33.90787817	    -10.48837870	     -4.38338900	     22.72430876	     22.72430876	      0.97670112	    -14.01056316	      6.23944359	    -10.28987960	      6.63938515	      2.98827449	     38.36041849	    -14.42314229	      4.91198280	     87.59359316	     44.34450223	      0.00000000	      0.00000000	    -14.98489066	     -7.38821309	      2.62263073	     29.50240307	     45.49901003	      0.00000000	      0.00000000
